<svg xmlns="http://www.w3.org/2000/svg" width="900" height="420" viewBox="0 0 900 420">
<rect width="900" height="420" fill="#ffffff"/>
<text x="450" y="22" text-anchor="middle" font-family="Arial" font-size="18">Motor Command Ramp</text>
<line x1="70" y1="30" x2="70" y2="360" stroke="#111827"/>
<line x1="70" y1="360" x2="870" y2="360" stroke="#111827"/>
<line x1="70" y1="360.0" x2="870" y2="360.0" stroke="#e5e7eb"/>
<text x="55" y="365.0" text-anchor="end" font-family="Arial" font-size="12">0%</text>
<line x1="70" y1="277.5" x2="870" y2="277.5" stroke="#e5e7eb"/>
<text x="55" y="282.5" text-anchor="end" font-family="Arial" font-size="12">25%</text>
<line x1="70" y1="195.0" x2="870" y2="195.0" stroke="#e5e7eb"/>
<text x="55" y="200.0" text-anchor="end" font-family="Arial" font-size="12">50%</text>
<line x1="70" y1="112.5" x2="870" y2="112.5" stroke="#e5e7eb"/>
<text x="55" y="117.5" text-anchor="end" font-family="Arial" font-size="12">75%</text>
<line x1="70" y1="30.0" x2="870" y2="30.0" stroke="#e5e7eb"/>
<text x="55" y="35.0" text-anchor="end" font-family="Arial" font-size="12">100%</text>
<line x1="70.0" y1="360" x2="70.0" y2="366" stroke="#111827"/>
<text x="70.0" y="384" text-anchor="middle" font-family="Arial" font-size="12">0s</text>
<line x1="270.0" y1="360" x2="270.0" y2="366" stroke="#111827"/>
<text x="270.0" y="384" text-anchor="middle" font-family="Arial" font-size="12">5s</text>
<line x1="470.0" y1="360" x2="470.0" y2="366" stroke="#111827"/>
<text x="470.0" y="384" text-anchor="middle" font-family="Arial" font-size="12">10s</text>
<line x1="670.0" y1="360" x2="670.0" y2="366" stroke="#111827"/>
<text x="670.0" y="384" text-anchor="middle" font-family="Arial" font-size="12">15s</text>
<line x1="870.0" y1="360" x2="870.0" y2="366" stroke="#111827"/>
<text x="870.0" y="384" text-anchor="middle" font-family="Arial" font-size="12">20s</text>
<polyline points="70.0,360.0 110.0,327.0 150.0,294.0 190.0,261.0 230.0,228.0 270.0,195.0 310.0,162.0 350.0,129.0 390.0,96.0 430.0,63.0 470.0,30.0 510.0,63.0 550.0,96.0 590.0,129.0 630.0,162.0 670.0,195.0 710.0,228.0 750.0,261.0 790.0,294.0 830.0,327.0 870.0,360.0" fill="none" stroke="#0f766e" stroke-width="4" stroke-linejoin="round"/>
<circle cx="70.0" cy="360.0" r="4" fill="#0f766e" />
<circle cx="110.0" cy="327.0" r="4" fill="#0f766e" />
<circle cx="150.0" cy="294.0" r="4" fill="#0f766e" />
<circle cx="190.0" cy="261.0" r="4" fill="#0f766e" />
<circle cx="230.0" cy="228.0" r="4" fill="#0f766e" />
<circle cx="270.0" cy="195.0" r="4" fill="#0f766e" />
<circle cx="310.0" cy="162.0" r="4" fill="#0f766e" />
<circle cx="350.0" cy="129.0" r="4" fill="#0f766e" />
<circle cx="390.0" cy="96.0" r="4" fill="#0f766e" />
<circle cx="430.0" cy="63.0" r="4" fill="#0f766e" />
<circle cx="470.0" cy="30.0" r="4" fill="#0f766e" />
<circle cx="510.0" cy="63.0" r="4" fill="#0f766e" />
<circle cx="550.0" cy="96.0" r="4" fill="#0f766e" />
<circle cx="590.0" cy="129.0" r="4" fill="#0f766e" />
<circle cx="630.0" cy="162.0" r="4" fill="#0f766e" />
<circle cx="670.0" cy="195.0" r="4" fill="#0f766e" />
<circle cx="710.0" cy="228.0" r="4" fill="#0f766e" />
<circle cx="750.0" cy="261.0" r="4" fill="#0f766e" />
<circle cx="790.0" cy="294.0" r="4" fill="#0f766e" />
<circle cx="830.0" cy="327.0" r="4" fill="#0f766e" />
<circle cx="870.0" cy="360.0" r="4" fill="#0f766e" />
<text x="450" y="402" text-anchor="middle" font-family="Arial" font-size="13">Time</text>
<text x="20" y="210" text-anchor="middle" font-family="Arial" font-size="13" transform="rotate(-90 20 210)">Commanded duty</text>
</svg>